Normalized EMG Linear Envelopes
nRows=143
nColumns=4

endheader
time	 med_gas_r	  soleus_r	 tib_ant_r	
3.65927	  0.019580	  0.144425	  0.034679	
3.69254	  0.019193	  0.143913	  0.034373	
3.72581	  0.018797	  0.143225	  0.034109	
3.75907	  0.018401	  0.142378	  0.033920	
3.79234	  0.018013	  0.141446	  0.033830	
3.8256	  0.017645	  0.140532	  0.033844	
3.85887	  0.017318	  0.139777	  0.033938	
3.89214	  0.017066	  0.139404	  0.034073	
3.9254	  0.016921	  0.139695	  0.034198	
3.95867	  0.016898	  0.140895	  0.034249	
3.99194	  0.016980	  0.143067	  0.034147	
4.0252	  0.017131	  0.146032	  0.033825	
4.05847	  0.017313	  0.149426	  0.033263	
4.09173	  0.017495	  0.152821	  0.032511	
4.125	  0.017650	  0.155812	  0.031696	
4.15827	  0.017755	  0.158018	  0.030983	
4.19153	  0.017800	  0.159088	  0.030535	
4.2248	  0.017805	  0.158800	  0.030455	
4.25806	  0.017818	  0.157215	  0.030754	
4.29133	  0.017892	  0.154714	  0.031354	
4.3246	  0.018051	  0.151820	  0.032123	
4.35786	  0.018283	  0.148921	  0.032914	
4.39113	  0.018543	  0.146131	  0.033598	
4.4244	  0.018788	  0.143384	  0.034078	
4.45766	  0.018987	  0.140652	  0.034301	
4.49093	  0.019126	  0.138098	  0.034272	
4.52419	  0.019193	  0.136048	  0.034054	
4.55746	  0.019178	  0.134877	  0.033746	
4.59073	  0.019078	  0.134863	  0.033456	
4.62399	  0.018906	  0.136085	  0.033264	
4.65726	  0.018690	  0.138349	  0.033204	
4.69052	  0.018468	  0.141225	  0.033258	
4.72379	  0.018273	  0.144221	  0.033375	
4.75706	  0.018131	  0.147014	  0.033492	
4.79032	  0.018060	  0.149579	  0.033555	
4.82359	  0.018069	  0.152040	  0.033512	
4.85685	  0.018152	  0.154391	  0.033328	
4.89012	  0.018289	  0.156355	  0.033016	
4.92339	  0.018464	  0.157597	  0.032658	
4.95665	  0.018666	  0.158062	  0.032399	
4.98992	  0.018884	  0.158063	  0.032373	
5.02319	  0.019084	  0.157963	  0.032637	
5.05645	  0.019210	  0.157761	  0.033134	
5.08972	  0.019206	  0.157017	  0.033730	
5.12298	  0.019055	  0.155212	  0.034273	
5.15625	  0.018794	  0.152197	  0.034651	
5.18952	  0.018500	  0.148348	  0.034814	
5.22278	  0.018260	  0.144366	  0.034776	
5.25605	  0.018135	  0.140962	  0.034593	
5.28931	  0.018154	  0.138680	  0.034331	
5.32258	  0.018310	  0.137844	  0.034045	
5.35585	  0.018577	  0.138529	  0.033771	
5.38911	  0.018919	  0.140517	  0.033541	
5.42238	  0.019301	  0.143320	  0.033399	
5.45565	  0.019685	  0.146376	  0.033410	
5.48891	  0.020018	  0.149301	  0.033634	
5.52218	  0.020235	  0.151995	  0.034083	
5.55544	  0.020280	  0.154519	  0.034692	
5.58871	  0.020134	  0.156882	  0.035329	
5.62198	  0.019834	  0.158957	  0.035839	
5.65524	  0.019458	  0.160555	  0.036093	
5.68851	  0.019083	  0.161507	  0.036035	
5.72177	  0.018759	  0.161689	  0.035694	
5.75504	  0.018503	  0.161039	  0.035167	
5.78831	  0.018305	  0.159639	  0.034569	
5.82157	  0.018145	  0.157776	  0.034009	
5.85484	  0.018003	  0.155873	  0.033576	
5.8881	  0.017867	  0.154294	  0.033332	
5.92137	  0.017733	  0.153173	  0.033300	
5.95464	  0.017617	  0.152397	  0.033440	
5.9879	  0.017553	  0.151760	  0.033663	
6.02117	  0.017571	  0.151150	  0.033883	
6.05444	  0.017685	  0.150669	  0.034067	
6.0877	  0.017876	  0.150609	  0.034251	
6.12097	  0.018103	  0.151318	  0.034487	
6.15423	  0.018329	  0.152993	  0.034790	
6.1875	  0.018532	  0.155504	  0.035112	
6.22077	  0.018699	  0.158316	  0.035373	
6.25403	  0.018821	  0.160609	  0.035513	
6.2873	  0.018884	  0.161593	  0.035528	
6.32056	  0.018875	  0.160871	  0.035482	
6.35383	  0.018792	  0.158627	  0.035468	
6.3871	  0.018640	  0.155477	  0.035561	
6.42036	  0.018436	  0.152114	  0.035768	
6.45363	  0.018209	  0.149048	  0.036019	
6.4869	  0.018008	  0.146565	  0.036225	
6.52016	  0.017894	  0.144788	  0.036339	
6.55343	  0.017901	  0.143653	  0.036394	
6.58669	  0.018013	  0.142854	  0.036466	
6.61996	  0.018168	  0.141967	  0.036624	
6.65323	  0.018300	  0.140751	  0.036896	
6.68649	  0.018388	  0.139377	  0.037268	
6.71976	  0.018469	  0.138327	  0.037687	
6.75302	  0.018605	  0.138041	  0.038056	
6.78629	  0.018835	  0.138629	  0.038246	
6.81956	  0.019136	  0.139895	  0.038148	
6.85282	  0.019437	  0.141584	  0.037740	
6.88609	  0.019648	  0.143574	  0.037116	
6.91935	  0.019711	  0.145867	  0.036444	
6.95262	  0.019606	  0.148423	  0.035888	
6.98589	  0.019359	  0.151022	  0.035545	
7.01915	  0.019025	  0.153273	  0.035436	
7.05242	  0.018674	  0.154710	  0.035530	
7.08569	  0.018377	  0.154939	  0.035769	
7.11895	  0.018170	  0.153807	  0.036090	
7.15222	  0.018055	  0.151518	  0.036422	
7.18548	  0.018014	  0.148592	  0.036677	
7.21875	  0.018038	  0.145647	  0.036748	
7.25202	  0.018135	  0.143134	  0.036540	
7.28528	  0.018320	  0.141224	  0.036017	
7.31855	  0.018599	  0.139898	  0.035233	
7.35181	  0.018979	  0.139121	  0.034335	
7.38508	  0.019461	  0.138938	  0.033520	
7.41835	  0.020034	  0.139461	  0.032992	
7.45161	  0.020649	  0.140790	  0.032935	
7.48488	  0.021233	  0.142939	  0.033508	
7.51815	  0.021736	  0.145753	  0.034868	
7.55141	  0.022183	  0.148858	  0.037206	
7.58468	  0.022681	  0.151677	  0.040761	
7.61794	  0.023366	  0.153591	  0.045709	
7.65121	  0.024338	  0.154186	  0.051914	
7.68448	  0.025611	  0.153443	  0.058674	
7.71774	  0.027123	  0.151709	  0.064777	
7.75101	  0.028782	  0.149496	  0.069041	
7.78427	  0.030543	  0.147268	  0.071025	
7.81754	  0.032454	  0.145343	  0.071322	
7.85081	  0.034625	  0.143927	  0.071056	
7.88407	  0.037095	  0.143167	  0.070969	
7.91734	  0.039709	  0.143189	  0.070878	
7.9506	  0.042154	  0.144082	  0.069997	
7.98387	  0.044158	  0.145865	  0.067822	
8.01714	  0.045673	  0.148438	  0.064783	
8.0504	  0.046846	  0.151533	  0.062109	
8.08367	  0.047814	  0.154724	  0.061015	
8.11694	  0.048560	  0.157529	  0.061870	
8.1502	  0.048957	  0.159577	  0.063922	
8.18347	  0.048932	  0.160731	  0.065753	
8.21673	  0.048573	  0.161122	  0.066173	
8.25	  0.048103	  0.161102	  0.064983	
8.28327	  0.047779	  0.161162	  0.063099	
8.31653	  0.047782	  0.161782	  0.061991	
8.3498	  0.048150	  0.163178	  0.062757	
8.38306	  0.048786	  0.165098	  0.065424	
